<svg height="480pt" viewBox="0 0 480 480.00685" width="480pt" xmlns="http://www.w3.org/2000/svg"><path d="m119.996094 472.007812c-.003906 2.121094.839844 4.15625 2.339844 5.65625s3.535156 2.34375 5.660156 2.34375h224c2.121094 0 4.15625-.84375 5.65625-2.34375s2.34375-3.535156 2.34375-5.65625v-72h24c2.121094 0 4.15625-.84375 5.65625-2.34375s2.34375-3.535156 2.34375-5.65625v-176c0-83.949218-68.054688-152-152-152-83.949219 0-152 68.050782-152 152v176c-.003906 2.121094.839844 4.15625 2.339844 5.65625s3.535156 2.34375 5.660156 2.34375h24zm224-8h-208v-64h208zm-240-248c0-75.113281 60.886718-136 136-136 75.109375 0 136 60.886719 136 136v104h-80v-128c-.03125-26.5-21.503906-47.972656-48-48h-16c-26.5.027344-47.972656 21.5-48 48v128h-80zm136 8c-8.839844 0-16-7.164062-16-16 0-8.835937 7.160156-16 16-16 8.835937 0 16 7.164063 16 16-.011719 8.832032-7.171875 15.988282-16 16zm8 14.863282c15.601562-4.027344 25.773437-19.03125 23.742187-35.015625-2.03125-15.988281-15.628906-27.96875-31.742187-27.96875-16.117188 0-29.714844 11.980469-31.746094 27.96875-2.03125 15.984375 8.140625 30.988281 23.746094 35.015625v81.136718h-32v-128c.015625-17.667968 14.332031-31.984374 32-32h16c17.664062.015626 31.980468 14.332032 32 32v128h-32zm-144 97.136718h272v48h-272zm0 0"/><path d="m343.996094 368.007812h8c4.417968 0 8-3.582031 8-8 0-4.417968-3.582032-8-8-8h-8c-4.421875 0-8 3.582032-8 8 0 4.417969 3.578125 8 8 8zm0 0"/><path d="m183.996094 136.007812c4.417968 0 8-3.582031 8-8 0-4.417968-3.582032-8-8-8-22.054688 0-40 21.53125-40 48 0 4.417969 3.578125 8 8 8 4.417968 0 8-3.582031 8-8 0-17.648437 10.761718-32 24-32zm0 0"/><path d="m93.648438 93.664062c3.128906-3.125 3.128906-8.191406 0-11.3125l-80-80c-3.125-3.117187-8.179688-3.113281-11.300782.007813s-3.125 8.179687-.007812 11.304687l80 80c3.121094 3.125 8.1875 3.125 11.308594 0zm0 0"/><path d="m93.800781.3125c-4.25 1.214844-6.710937 5.640625-5.5 9.890625l16 56c.980469 3.429687 4.117188 5.796875 7.683594 5.804687.746094-.003906 1.488281-.105468 2.203125-.304687 4.25-1.214844 6.710938-5.640625 5.5-9.890625l-16-56c-1.238281-4.230469-5.640625-6.679688-9.886719-5.5zm0 0"/><path d="m74.1875 112.3125-56-16c-4.25-1.214844-8.675781 1.25-9.886719 5.5-1.214843 4.25 1.25 8.675781 5.5 9.890625l56 16c.714844.199219 1.457031.300781 2.203125.304687 3.988282-.003906 7.367188-2.945312 7.917969-6.898437.550781-3.949219-1.894531-7.703125-5.734375-8.796875zm0 0"/><path d="m466.339844 2.351562-80 80c-2.027344 2.019532-2.820313 4.964844-2.082032 7.730469.738282 2.761719 2.898438 4.921875 5.660157 5.660157 2.765625.738281 5.710937-.054688 7.730469-2.078126l80-80c2.027343-2.019531 2.820312-4.96875 2.082031-7.730468-.738281-2.765625-2.898438-4.921875-5.660157-5.660156-2.765624-.742188-5.710937.050781-7.730468 2.078124zm0 0"/><path d="m376.300781 5.8125-16 56c-1.210937 4.25 1.25 8.675781 5.5 9.890625.714844.199219 1.457031.300781 2.203125.304687 3.566406-.007812 6.703125-2.375 7.683594-5.804687l16-56c1.214844-4.25-1.25-8.679687-5.5-9.890625-4.25-1.214844-8.675781 1.25-9.886719 5.5zm0 0"/><path d="m461.800781 96.3125-56 16c-3.839843 1.09375-6.285156 4.847656-5.734375 8.796875.550782 3.953125 3.929688 6.894531 7.917969 6.898437.746094-.003906 1.488281-.105468 2.203125-.304687l56-16c4.25-1.214844 6.714844-5.640625 5.5-9.890625-1.210938-4.25-5.636719-6.714844-9.886719-5.5zm0 0"/></svg>