<svg height="496pt" viewBox="0 0 496 496" width="496pt" xmlns="http://www.w3.org/2000/svg"><path d="m480 449.472656v-417.472656h-16v-32h-176v32h-16v192h-48v-96h-16v-16h30.097656l-118.097656-98.414062-118.097656 98.414062h30.097656v16h-16v321.472656c-9.289062 3.3125-16 12.113282-16 22.527344v24h496v-24c0-10.414062-6.710938-19.214844-16-22.527344zm-176-433.472656h144v16h-144zm-16 32h176v400h-48v-64h-64v-16h96v-48h-96v-16h96v-48h-112v-16h112v-48h-144v32h-16zm-16 400h-48v-64h48zm-64-80v80h-48v-176h176v176h-48v-80zm224-160v16h-16v-16zm-32 16h-16v-16h16zm-32 0h-16v-16h16zm-32 0h-16v-16h16zm16 48h16v16h-16zm80 0v16h-16v-16zm-32 16h-16v-16h16zm-48 48h16v16h-16zm80 0v16h-16v-16zm-32 16h-16v-16h16zm-80-96h-144v-16h144zm32 144h48v48h-48zm-232-365.585938 73.902344 61.585938h-147.804688zm-72 77.585938h144v16h-144zm160 32v80h-48v32h-16v192h-32v-32h-64v32h-16v-304zm-112 304h-32v-16h32zm384 32h-464v-8c0-4.414062 3.585938-8 8-8h448c4.414062 0 8 3.585938 8 8zm0 0"/><path d="m112 160h-64v48h64zm-16 32h-32v-16h32zm0 0"/><path d="m112 224h-64v48h64zm-16 32h-32v-16h32zm0 0"/><path d="m112 288h-64v48h64zm-16 32h-32v-16h32zm0 0"/><path d="m112 352h-64v48h64zm-16 32h-32v-16h32zm0 0"/><path d="m192 160h-64v48h64zm-16 32h-32v-16h32zm0 0"/><path d="m448 64h-144v48h144zm-64 16h16v16h-16zm-16 16h-16v-16h16zm-48-16h16v16h-16zm112 16h-16v-16h16zm0 0"/><path d="m448 128h-144v48h144zm-64 16h16v16h-16zm-16 16h-16v-16h16zm-48-16h16v16h-16zm112 16h-16v-16h16zm0 0"/><path d="m320 288h-144v48h144zm-64 16h16v16h-16zm-16 16h-16v-16h16zm-48-16h16v16h-16zm112 16h-16v-16h16zm0 0"/></svg>