<?xml version="1.0" encoding="iso-8859-1"?>
<!-- Generator: Adobe Illustrator 19.0.0, SVG Export Plug-In . SVG Version: 6.00 Build 0)  -->
<svg version="1.1" id="Capa_1" xmlns="http://www.w3.org/2000/svg" xmlns:xlink="http://www.w3.org/1999/xlink" x="0px" y="0px"
	 viewBox="0 0 511.999 511.999" style="enable-background:new 0 0 511.999 511.999; fill: #EF760D;" xml:space="preserve">
<g>
	<g>
		<path d="M433.221,331.268c10.079-12.804,20.5-26.042,20.592-44.748c0.095-19.391-9.88-35.686-19.525-51.444
			c-4.917-8.033-9.562-15.619-12.939-23.555c-6.276-14.743-8.621-32.404-6.968-52.489c0.722-8.772,2.793-17.922,4.986-27.61
			c5.086-22.467,10.85-47.933-2.085-70.94c-7.083-12.599-19.51-22.041-34.097-25.909c-12.625-3.347-25.906-2.258-37.267,2.927
			C304.417,0.788,240.263-10.432,187.84,10.372c-31.201,12.382-57.969,36.001-75.372,66.506c-2.052,3.598-0.8,8.178,2.798,10.231
			c3.597,2.052,8.178,0.8,10.231-2.798c15.722-27.559,39.828-48.867,67.876-59.998c48.855-19.388,108.958-8.004,146.155,27.685
			c2.441,2.342,6.149,2.76,9.051,1.02c8.894-5.335,20.106-6.775,30.764-3.949c10.694,2.835,19.756,9.673,24.865,18.76
			c10.106,17.976,5.455,38.524,0.53,60.279c-2.211,9.768-4.498,19.868-5.306,29.691c-1.855,22.537,0.875,42.587,8.115,59.595
			c3.81,8.951,8.964,17.37,13.947,25.512c8.945,14.612,17.394,28.415,17.319,43.539c-0.066,13.552-8.476,24.235-17.378,35.545
			c-7.86,9.985-15.986,20.309-19.419,33.548c-2.813,10.851-1.512,21.314-0.253,31.435c1.078,8.664,2.096,16.846,0.357,24.408
			c-0.863,3.757-2.366,7.479-4.466,11.063c-2.094,3.573-0.895,8.168,2.679,10.263c1.191,0.698,2.497,1.031,3.785,1.031
			c2.575,0,5.082-1.328,6.478-3.709c2.872-4.9,4.938-10.043,6.144-15.285c2.332-10.145,1.1-20.045-0.091-29.621
			c-1.135-9.124-2.207-17.74-0.113-25.818C419.179,349.107,426,340.442,433.221,331.268z"/>
	</g>
</g>
<g>
	<g>
		<path d="M363.411,185.991c-1.581,0-3.15,0.097-4.707,0.27v-13.805c0-4.305-2.917-8.081-7.094-9.183
			c-24.433-6.447-34.608-25.065-38.801-40.73c5.982-8.954,10.983-19.49,15.363-32.056c1.364-3.911-0.702-8.188-4.613-9.551
			c-3.91-1.361-8.187,0.702-9.551,4.613c-4.291,12.307-9.104,22.28-14.96,30.537c-0.281,0.324-0.535,0.668-0.756,1.035
			c-8.433,11.504-19.003,19.612-33.211,26.063c-3.771,1.713-5.44,6.159-3.728,9.93c1.256,2.766,3.982,4.401,6.833,4.401
			c1.037,0,2.091-0.216,3.097-0.673c12.078-5.485,21.991-12.108,30.321-20.515c7.944,19.867,22.491,33.855,42.1,40.249v19.111
			v66.154c0,3.602-0.693,7.428-2.06,11.374c-1.356,3.914,0.717,8.186,4.631,9.542c0.813,0.282,1.641,0.416,2.456,0.416
			c3.106,0,6.012-1.946,7.086-5.046c0.503-1.452,0.937-2.899,1.309-4.341c2.076,0.313,4.174,0.479,6.285,0.479
			c2.95,0,5.832-0.305,8.618-0.883l-1.261,4.089c-3.519,11.394-13.889,19.048-25.805,19.048h-11.839
			c-3.059-8.246-11.005-14.138-20.301-14.138h-20.711c-11.935,0-21.645,9.711-21.645,21.646c0,9.959,6.762,18.362,15.933,20.875
			c-0.346,0.149-0.692,0.309-1.037,0.454c-7.642,3.211-15.091,5.305-21.939,6.216c-2.561,0.341-5.045,0.529-7.414,0.529
			c-2.646,0-5.438-0.241-8.32-0.665c-6.6-0.971-13.726-3.008-21.035-6.08c-28.755-12.073-53.418-36.556-57.659-57.142
			c-0.295-12.033,0.34-23.832,2.505-34.934c6.523-33.45,26.331-54.144,60.557-63.267c3.609-0.962,6.862-1.863,9.944-2.753
			c3.979-1.15,6.272-5.309,5.122-9.288c-1.15-3.979-5.307-6.274-9.288-5.123c-2.98,0.861-6.133,1.735-9.641,2.669
			c-39.765,10.599-63.792,35.795-71.415,74.889c-6.382,32.731-0.782,69.426,4.159,101.802c0.395,2.583,0.783,5.132,1.16,7.64
			c0.559,3.719,3.758,6.387,7.408,6.387c0.37,0,0.746-0.027,1.123-0.084c4.096-0.615,6.918-4.435,6.303-8.531
			c-0.378-2.519-0.769-5.079-1.165-7.675c-1.269-8.315-2.581-16.927-3.715-25.658c1.925,2.21,3.976,4.401,6.176,6.564
			c10.767,10.584,24.123,19.79,38.026,26.282v7.277L180.6,357.208c-0.012,0.004-0.024,0.01-0.036,0.015l-11.8,4.236
			c-26.538,9.527-44.368,34.872-44.368,63.068v20.869c-2.179-0.92-4.169-1.996-5.973-3.259c-9.878-6.908-14.45-21.341-10.408-32.866
			c1.278-3.654,3.337-7.214,5.517-10.983c1.52-2.627,3.091-5.344,4.482-8.243c7.144-14.852,8.11-31.429,2.792-47.936
			c-4.503-13.978-13.31-27.602-25.469-39.395l-1.158-1.121c-9.168-8.874-17.827-17.255-20.226-28.558
			c-3.403-16.064,5.425-33.006,14.759-48.983l0.151-0.259c7.456-12.771,15.905-27.247,17.932-43.469
			c0.982-7.851,0.934-15.729,0.888-23.351c-0.042-6.754-0.08-13.133,0.544-19.429c0.899-9.068,2.834-18.235,5.752-27.249
			c1.276-3.941-0.884-8.169-4.825-9.445c-3.939-1.275-8.17,0.884-9.445,4.825c-3.248,10.032-5.404,20.256-6.408,30.389
			c-0.702,7.08-0.659,14.156-0.617,20.999c0.046,7.468,0.089,14.52-0.771,21.398c-1.646,13.174-8.945,25.678-16.003,37.769
			l-0.149,0.256c-10.814,18.507-20.993,38.359-16.48,59.659c3.35,15.784,14.568,26.644,24.467,36.225l1.147,1.111
			c33.725,32.712,23.53,61.898,19.6,70.068c-1.145,2.384-2.506,4.738-3.947,7.229c-2.432,4.205-4.947,8.553-6.689,13.533
			c-6.255,17.831,0.61,39.376,15.967,50.116c4.264,2.983,9.072,5.249,14.569,6.87v37.204c0,7.444,6.056,13.499,13.499,13.499
			h236.229c7.444,0,13.5-6.056,13.5-13.499v-73.976c0-28.196-17.83-53.541-44.368-63.068l-11.804-4.237
			c-0.011-0.004-0.021-0.009-0.032-0.013l-35.653-12.797v-7.282c6.94-3.246,13.847-7.228,20.296-11.701
			c7.875-1.188,14.372-6.634,17.065-13.91h11.833c18.535,0,34.665-11.904,40.137-29.625l5.353-17.363
			c9.864-8.096,16.193-20.505,16.193-34.401C406.647,205.791,387.252,185.991,363.411,185.991z M172.586,376.049
			c0.413-0.16,0.824-0.324,1.243-0.474l4.76-1.709c9.006,20.265,31.273,35.522,58.297,40.492
			c-13.579,10.965-30.176,14.263-43.624,7.796C178.061,414.844,170.025,396.616,172.586,376.049z M354.878,385.432
			c11.03,9.695,17.744,23.855,17.744,39.093v72.476H139.394v-41.662c0-0.001,0-0.003,0-0.005v-30.809
			c0-15.238,6.715-29.399,17.744-39.093c0.585,22.349,11.496,41.521,29.622,50.24c6.696,3.221,13.893,4.77,21.202,4.77
			c17.067,0,34.74-8.453,48.046-23.797c13.307,15.345,30.977,23.799,48.046,23.797c7.308-0.001,14.507-1.55,21.202-4.77
			C343.383,426.953,354.293,407.78,354.878,385.432z M333.428,373.866l4.759,1.708c0.418,0.151,0.83,0.315,1.243,0.475
			c2.563,20.568-5.475,38.794-20.674,46.105c-13.45,6.467-30.045,3.168-43.624-7.796
			C302.155,409.388,324.422,394.132,333.428,373.866z M318.528,368.517c0.01,0.004,0.02,0.009,0.03,0.012l0.728,0.261
			c-9.003,19.063-34.293,32.314-63.278,32.314c-28.985,0-54.276-13.252-63.277-32.316l33.553-12.044
			c2.979-1.069,4.966-3.894,4.966-7.059v-6.699c0.125,0.039,0.248,0.071,0.373,0.109c0.91,0.279,1.817,0.548,2.72,0.799
			c0.061,0.017,0.123,0.036,0.184,0.053c0.954,0.263,1.903,0.505,2.849,0.736c0.257,0.063,0.513,0.123,0.769,0.183
			c0.78,0.184,1.557,0.356,2.33,0.518c0.186,0.039,0.372,0.081,0.558,0.118c0.925,0.187,1.845,0.356,2.758,0.51
			c0.223,0.038,0.445,0.071,0.668,0.107c0.739,0.119,1.473,0.227,2.204,0.324c0.228,0.031,0.457,0.063,0.685,0.091
			c0.898,0.112,1.791,0.209,2.674,0.287c0.153,0.013,0.303,0.022,0.456,0.035c0.751,0.062,1.496,0.11,2.235,0.148
			c0.237,0.012,0.474,0.024,0.71,0.033c0.871,0.035,1.736,0.059,2.588,0.059c0.852,0,1.718-0.024,2.588-0.059
			c0.236-0.009,0.473-0.021,0.71-0.033c0.739-0.037,1.484-0.086,2.235-0.148c0.152-0.013,0.303-0.021,0.456-0.035
			c0.884-0.078,1.776-0.176,2.674-0.287c0.227-0.028,0.456-0.06,0.683-0.091c0.732-0.097,1.467-0.205,2.208-0.324
			c0.221-0.036,0.441-0.069,0.663-0.106c0.915-0.155,1.835-0.324,2.762-0.511c0.182-0.037,0.365-0.078,0.547-0.116
			c0.778-0.162,1.559-0.336,2.344-0.521c0.253-0.06,0.505-0.118,0.759-0.18c0.948-0.231,1.9-0.474,2.857-0.738
			c0.053-0.015,0.107-0.031,0.16-0.046c0.912-0.253,1.829-0.525,2.749-0.807c0.122-0.037,0.242-0.069,0.364-0.107v6.699
			c0,3.165,1.987,5.99,4.966,7.059L318.528,368.517z M313.205,310.651c-0.029,0.001-0.058,0.003-0.088,0.005
			c-0.099,0.004-0.196,0.015-0.296,0.015H292.11c-3.665,0-6.646-2.981-6.646-6.646s2.982-6.648,6.647-6.648h20.711
			c3.665,0,6.646,2.982,6.646,6.647C319.468,307.56,316.691,310.451,313.205,310.651z M363.411,259.263
			c-1.582,0-3.154-0.138-4.707-0.411v-57.46c1.546-0.268,3.119-0.402,4.707-0.402c15.569,0,28.237,13.07,28.237,29.137
			C391.648,246.193,378.981,259.263,363.411,259.263z"/>
	</g>
</g>
<g>
	<g>
		<path d="M287.744,256.051c-2.881-2.974-7.63-3.05-10.605-0.166c-11.719,11.356-30.077,11.356-41.795,0
			c-2.975-2.883-7.724-2.809-10.606,0.166c-2.883,2.974-2.808,7.723,0.167,10.605c8.786,8.515,20.061,12.771,31.336,12.771
			c11.275,0,22.55-4.257,31.336-12.771C290.552,263.774,290.626,259.025,287.744,256.051z"/>
	</g>
</g>
<g>
	<g>
		<path d="M326.753,204.769c-4.164-4.795-10.02-7.545-16.065-7.545c-6.046,0-11.901,2.75-16.064,7.545
			c-2.716,3.127-2.382,7.865,0.746,10.581c3.127,2.713,7.865,2.379,10.58-0.747c1.333-1.535,3.016-2.379,4.739-2.38
			c1.724,0,3.408,0.845,4.741,2.38c1.483,1.708,3.568,2.583,5.666,2.583c1.743,0,3.495-0.604,4.914-1.837
			C329.135,212.633,329.469,207.896,326.753,204.769z"/>
	</g>
</g>
<g>
	<g>
		<path d="M217.394,204.767c-4.164-4.793-10.02-7.543-16.065-7.544c-6.046,0-11.902,2.75-16.065,7.545
			c-2.716,3.127-2.382,7.864,0.745,10.58c1.419,1.233,3.171,1.837,4.914,1.837c2.097,0,4.183-0.875,5.666-2.583
			c1.333-1.535,3.017-2.38,4.741-2.38s3.407,0.845,4.739,2.38c2.716,3.127,7.453,3.461,10.581,0.746
			S220.109,207.895,217.394,204.767z"/>
	</g>
</g>
<g>
</g>
<g>
</g>
<g>
</g>
<g>
</g>
<g>
</g>
<g>
</g>
<g>
</g>
<g>
</g>
<g>
</g>
<g>
</g>
<g>
</g>
<g>
</g>
<g>
</g>
<g>
</g>
<g>
</g>
</svg>
