<?xml version="1.0"?>
<svg xmlns="http://www.w3.org/2000/svg" height="512px" viewBox="0 0 480 480" width="512px"><path d="m303.679688 376c-4.417969 0-8 3.582031-8 8 0 13.253906-10.746094 24-24 24-4.417969 0-8-3.582031-8-8s3.582031-8 8-8c4.417968 0 8-3.582031 8-8s-3.582032-8-8-8c-10.117188.0625-19.109376 6.460938-22.480469 16-.988281-2.550781-1.503907-5.261719-1.519531-8 .082031-6.730469 2.984374-13.113281 8-17.601562 37.253906-7.601563 64.007812-40.375 64-78.398438-1.5-28.367188-10.171876-55.894531-25.199219-80-2.308594-3.742188-7.203125-4.921875-10.960938-2.640625-1.820312 1.109375-3.121093 2.898437-3.617187 4.972656-.496094 2.070313-.144532 4.253907.976562 6.066407 13.46875 21.734374 21.304688 46.480468 22.800782 72-.039063 20.175781-9.582032 39.148437-25.757813 51.203124 3.09375-9.941406 2.097656-20.707031-2.769531-29.910156-4.863282-9.203125-13.195313-16.089844-23.152344-19.132812-5.800781-12.492188-7.375-26.53125-4.480469-40 .792969-3.414063-.730469-6.949219-3.757812-8.71875-3.035157-1.761719-6.863281-1.339844-9.441407 1.039062l-10.480468 9.441406c-20.183594 18.210938-29.507813 45.574219-24.640625 72.320313l.878906 4.960937c.144531 3.308594.707031 6.589844 1.683594 9.757813-16.34375-12.019531-26.019531-31.074219-26.082031-51.359375 1.277343-23.5625 8.128906-46.484375 20-66.878906l4.160156 20.480468c.71875 3.554688 3.738281 6.179688 7.359375 6.398438 3.402343.292969 6.613281-1.601562 8-4.71875l24.640625-55.519531 24.71875 55.519531c.859375 1.941406 2.453125 3.460938 4.4375 4.226562 1.980468.765626 4.183594.710938 6.125-.148437 4-1.785156 5.816406-6.457031 4.078125-10.480469l-32-72c-1.300781-2.890625-4.1875-4.742187-7.359375-4.71875-3.144532.007813-5.992188 1.851563-7.28125 4.71875l-21.839844 49.121094-3.519531-14.800781c-.632813-3.042969-2.972657-5.445313-6-6.160157-2.980469-.671874-6.085938.414063-8 2.800782-20.089844 26.703125-31.761719 58.789062-33.519531 92.160156.039062 23.628906 10.523437 46.03125 28.640624 61.199219-12.671874 7.007812-20.566406 20.320312-20.640624 34.800781-.007813 1.613281.15625 3.222656.480468 4.800781 2.039063 16.117188 13.621094 29.402344 29.3125 33.613281 15.691406 4.214844 32.371094-1.484374 42.207032-14.414062 6.492187 8.835938 16.324218 14.621094 27.199218 16 1.582032.324219 3.1875.488281 4.800782.480469 22.089843 0 40-17.910157 40-40 .132812-2.203125-.652344-4.363281-2.167969-5.96875-1.511719-1.605469-3.625-2.515625-5.832031-2.511719zm-73.519532-108.078125c.394532 7.019531 1.710938 13.960937 3.917969 20.636719h-3.277344c-2.175781.523437-4.316406 1.191406-6.402343 2-2.121094.902344-4.15625 2.003906-6.078126 3.28125l-1.359374.878906-1.519532 1.042969c2.476563-10.375 7.542969-19.953125 14.71875-27.839844zm-22.480468 140.078125c-2.738282-.015625-5.449219-.53125-8-1.519531 9.539062-3.371094 15.9375-12.363281 16-22.480469 0-4.417969-3.582032-8-8-8-4.417969 0-8 3.582031-8 8s-3.582032 8-8 8c-4.417969 0-8-3.582031-8-8-.050782-12.457031 9.4375-22.878906 21.839843-24 5.859375 2.800781 12.039063 4.871094 18.402344 6.160156 7.195313 6.671875 9.605469 17.054688 6.082031 26.21875-3.523437 9.160156-12.269531 15.253906-22.082031 15.382813zm32-56c-13.253907 0-24-10.746094-24-24 .011718-1.753906.226562-3.496094.640624-5.199219.097657-.464843.230469-.917969.398438-1.359375l.480469-1.363281c3.371093 9.539063 12.363281 15.941406 22.480469 16 4.417968 0 8-3.578125 8-8 0-4.417969-3.582032-8-8-8-4.417969 0-8-3.578125-8-8 0-4.417969 3.582031-8 8-8 1.726562-.195313 3.472656-.195313 5.199218 0 13.234375 1.4375 22.796875 13.328125 21.359375 26.5625-1.433593 13.230469-13.324219 22.796875-26.558593 21.359375zm0 0" fill="#2c237d"/><path d="m455.679688 416h-32v-336c22.089843 0 40-17.910156 40-40 0-4.417969-3.582032-8-8-8-4.417969 0-8 3.582031-8 8 0 13.253906-10.746094 24-24 24h-368c-11.617188-.089844-21.5-8.488281-23.46875-19.933594-1.964844-11.449218 4.550781-22.664062 15.46875-26.625v22.558594c0 4.417969 3.582031 8 8 8h192c4.417968 0 8-3.582031 8-8s-3.582032-8-8-8h-184v-16h352v16h-104c-4.417969 0-8 3.582031-8 8s3.582031 8 8 8h112c4.417968 0 8-3.582031 8-8v-32c0-4.417969-3.582032-8-8-8h-368c-22.089844 0-40 17.910156-40 40s17.910156 40 40 40h109.121093c-3.28125 1.441406-6.5625 3.039062-9.761719 4.71875-26.839843 14.007812-49.851562 34.359375-67.039062 59.28125-6.136719 9.046875-11.488281 18.601562-16 28.558594v-68.558594c0-4.417969-3.582031-8-8-8s-8 3.582031-8 8v312h-32c-13.253906 0-24 10.746094-24 24v16c0 13.253906 10.746094 24 24 24h432c13.253906 0 24-10.746094 24-24v-16c0-6.421875-2.570312-12.574219-7.140625-17.085938-4.570313-4.507812-10.757813-7-17.179687-6.914062zm-48-336v93.28125c-4.460938-10.035156-9.816407-19.648438-16-28.722656-17.070313-24.761719-39.917969-45-66.558594-58.957032-3.199219-1.679687-6.402344-3.28125-9.761719-4.722656zm-8 288h8v48h-32v-112h32v48h-8c-4.417969 0-8 3.582031-8 8s3.582031 8 8 8zm-24-80v-40c0-2.71875 0-5.359375-.398438-8h32c0 2.640625.398438 5.28125.398438 8v40zm6.320312-128.960938c12.46875 19.730469 20.648438 41.863282 24 64.960938h-32c-3.109375-17.414062-9.605469-34.046875-19.121094-48.960938zm-37.039062 2.960938c-10.4375-12.816406-23.09375-23.65625-37.359376-32l16-27.679688c19.0625 11.078126 35.777344 25.78125 49.199219 43.28125zm-97.28125-81.441406c21.320312.988281 42.257812 6.039062 61.679687 14.882812l-16 27.757813c-14.496094-6.164063-29.953125-9.765625-45.679687-10.640625zm-16 0v32c-15.703126.871094-31.132813 4.472656-45.601563 10.640625l-16-27.757813c19.402344-8.835937 40.308594-13.886718 61.601563-14.882812zm-75.917969 22.242187 16 27.679688c-14.261719 8.324219-26.890625 19.167969-37.28125 32l-27.921875-16c13.402344-17.625 30.113281-32.464844 49.203125-43.679688zm-58.320313 56 27.679688 16c-9.570313 14.980469-16.09375 31.699219-19.199219 49.199219h-32c3.273437-22.992188 11.28125-45.058594 23.519531-64.800781zm6.636719 81.199219v8 104h-32v-48h8c4.421875 0 8-3.582031 8-8s-3.578125-8-8-8h-8v-40c0-2.71875 0-5.359375 0-8zm-32 128h32v48h-32zm392 88c0 4.417969-3.578125 8-8 8h-432c-4.417969 0-8-3.582031-8-8v-16c0-4.417969 3.582031-8 8-8h128c4.421875 0 8-3.582031 8-8s-3.578125-8-8-8h-32v-168c0-66.273438 53.726563-120 120-120 66.277344 0 120 53.726562 120 120v168h-32c-4.417969 0-8 3.582031-8 8s3.582031 8 8 8h128c4.421875 0 8 3.582031 8 8zm0 0" fill="#2c237d"/></svg>
