<svg height="496pt" viewBox="0 0 496 496" width="496pt" xmlns="http://www.w3.org/2000/svg"><path d="m454.617188 480c-7.617188 0-11.050782-2.65625-15.808594-6.328125-5.570313-4.3125-12.503906-9.671875-25.585938-9.671875-13.078125 0-20.007812 5.367188-25.574218 9.671875-4.746094 3.671875-8.167969 6.328125-15.777344 6.328125-7.589844 0-11.023438-2.65625-15.765625-6.328125-5.570313-4.304687-12.488281-9.671875-25.5625-9.671875-13.070313 0-20 5.367188-25.566407 9.671875-4.746093 3.671875-8.167968 6.328125-15.777343 6.328125-7.589844 0-11.023438-2.65625-15.765625-6.328125-5.570313-4.304687-12.488282-9.671875-25.5625-9.671875-13.070313 0-20 5.367188-25.566406 9.671875-4.746094 3.671875-8.167969 6.328125-15.769532 6.328125-7.597656 0-11.023437-2.65625-15.765625-6.328125-5.570312-4.304687-12.488281-9.671875-25.5625-9.671875-13.070312 0-20 5.367188-25.558593 9.679688-4.746094 3.664062-8.167969 6.320312-15.761719 6.320312-7.582031 0-11-2.648438-15.742188-6.320312-5.558593-4.3125-12.480469-9.679688-25.542969-9.679688-13.074218 0-20 5.367188-25.5625 9.679688-4.742187 3.664062-8.167968 6.320312-15.757812 6.320312-7.585938 0-11.007812-2.648438-15.746094-6.320312-5.558594-4.3125-12.480468-9.679688-25.535156-9.679688v16c7.585938 0 11.007812 2.648438 15.742188 6.320312 5.5625 4.3125 12.480468 9.679688 25.539062 9.679688 13.0625 0 19.992188-5.367188 25.550781-9.671875 4.742188-3.671875 8.175781-6.328125 15.769531-6.328125 7.582032 0 11.007813 2.65625 15.75 6.328125 5.558594 4.304687 12.480469 9.671875 25.535157 9.671875 13.066406 0 19.992187-5.367188 25.554687-9.671875 4.742188-3.671875 8.175782-6.328125 15.765625-6.328125 7.59375 0 11.023438 2.65625 15.769531 6.328125 5.566407 4.304687 12.496094 9.671875 25.558594 9.671875 13.066406 0 19.992188-5.367188 25.5625-9.671875 4.742188-3.671875 8.175782-6.328125 15.773438-6.328125 7.59375 0 11.023437 2.65625 15.769531 6.328125 5.566406 4.304687 12.496094 9.671875 25.558594 9.671875 13.066406 0 20-5.367188 25.570312-9.671875 4.742188-3.671875 8.175781-6.328125 15.773438-6.328125 7.59375 0 11.023437 2.65625 15.769531 6.328125 5.566406 4.304687 12.496094 9.671875 25.558594 9.671875 13.066406 0 20-5.359375 25.570312-9.671875 4.742188-3.671875 8.175782-6.328125 15.78125-6.328125 7.617188 0 11.050782 2.65625 15.808594 6.328125 5.570312 4.3125 12.503906 9.671875 25.585938 9.671875 13.078124 0 20.007812-5.359375 25.574218-9.671875 4.761719-3.671875 8.191406-6.328125 15.808594-6.328125v-16c-13.078125 0-20.015625 5.359375-25.585938 9.671875-4.757812 3.671875-8.191406 6.328125-15.796874 6.328125zm0 0"/><path d="m496 272v-72h-128v-176c0-13.230469-10.769531-24-24-24s-24 10.769531-24 24v40h-144v-40c0-13.230469-10.769531-24-24-24s-24 10.769531-24 24v176h-128v72h128v39.609375c-1.257812.214844-2.550781.390625-4.113281.390625-7.582031 0-11-2.648438-15.742188-6.320312-5.558593-4.3125-12.480469-9.679688-25.542969-9.679688-13.074218 0-20 5.367188-25.5625 9.679688-4.742187 3.664062-8.167968 6.320312-15.757812 6.320312-7.585938 0-11.007812-2.648438-15.746094-6.320312-5.558594-4.3125-12.480468-9.679688-25.535156-9.679688v16c7.585938 0 11.007812 2.648438 15.742188 6.320312 5.5625 4.3125 12.480468 9.679688 25.539062 9.679688 13.0625 0 19.992188-5.367188 25.550781-9.671875 4.742188-3.671875 8.175781-6.328125 15.769531-6.328125 7.582032 0 11.007813 2.65625 15.75 6.328125 5.558594 4.304687 12.480469 9.671875 25.535157 9.671875 13.066406 0 19.992187-5.367188 25.554687-9.671875 4.742188-3.671875 8.175782-6.328125 15.765625-6.328125 7.59375 0 11.023438 2.65625 15.769531 6.328125 5.566407 4.304687 12.496094 9.671875 25.558594 9.671875 13.066406 0 19.992188-5.367188 25.5625-9.671875 4.742188-3.671875 8.175782-6.328125 15.773438-6.328125 7.59375 0 11.023437 2.65625 15.769531 6.328125 5.566406 4.304687 12.496094 9.671875 25.558594 9.671875 13.066406 0 20-5.367188 25.570312-9.671875 4.742188-3.671875 8.175781-6.328125 15.773438-6.328125 7.59375 0 11.023437 2.65625 15.769531 6.328125 5.566406 4.304687 12.496094 9.671875 25.558594 9.671875 13.066406 0 20-5.359375 25.570312-9.671875 4.742188-3.671875 8.175782-6.328125 15.78125-6.328125 7.617188 0 11.050782 2.65625 15.808594 6.328125 5.570312 4.3125 12.503906 9.671875 25.585938 9.671875 13.078124 0 20.007812-5.359375 25.574218-9.671875 4.761719-3.671875 8.191406-6.328125 15.808594-6.328125v-16c-13.078125 0-20.015625 5.359375-25.585938 9.671875-4.757812 3.671875-8.191406 6.328125-15.796874 6.328125-7.617188 0-11.050782-2.65625-15.808594-6.328125-5.570313-4.3125-12.503906-9.671875-25.585938-9.671875-13.078125 0-20.007812 5.367188-25.574218 9.671875-4.746094 3.671875-8.167969 6.328125-15.777344 6.328125-1.472656 0-2.671875-.175781-3.871094-.367188v-39.632812zm-96-16v-40h48v40zm80 0h-16v-40h16zm-96-40v40h-16v-40zm-64-72h-144v-32h144zm0 16v16h-144v-16zm0 32v32h-144v-32zm0 48v16h-144v-16zm0-160v16h-144v-16zm-224 136v40h-48v-40zm-80 0h16v40h-16zm96 40v-40h16v40zm32 46.457031v-278.457031c0-4.414062 3.585938-8 8-8s8 3.585938 8 8v272.335938c-7.023438.863281-12 3.382812-16 6.121093zm160.976562 3.214844c-4.746093 3.671875-8.167968 6.328125-15.777343 6.328125-7.589844 0-11.023438-2.65625-15.765625-6.328125-5.570313-4.304687-12.488282-9.671875-25.5625-9.671875-13.070313 0-20 5.367188-25.566406 9.671875-4.746094 3.671875-8.167969 6.328125-15.769532 6.328125-7.597656 0-11.023437-2.65625-15.765625-6.328125-3.785156-2.917969-8.242187-6.296875-14.777343-8.183594v-25.488281h144v25.414062c-6.65625 1.875-11.183594 5.296876-15.015626 8.257813zm31.023438-9.296875v-272.375c0-4.414062 3.585938-8 8-8s8 3.585938 8 8v278.625c-4-2.761719-8.96875-5.335938-16-6.25zm0 0"/><path d="m454.617188 424c-7.617188 0-11.050782-2.65625-15.808594-6.328125-5.570313-4.3125-12.503906-9.671875-25.585938-9.671875-13.078125 0-20.007812 5.367188-25.574218 9.671875-4.746094 3.671875-8.167969 6.328125-15.777344 6.328125-7.589844 0-11.023438-2.65625-15.765625-6.328125-5.570313-4.304687-12.488281-9.671875-25.5625-9.671875-13.070313 0-20 5.367188-25.566407 9.671875-4.746093 3.671875-8.167968 6.328125-15.777343 6.328125-7.589844 0-11.023438-2.65625-15.765625-6.328125-5.570313-4.304687-12.488282-9.671875-25.5625-9.671875-13.070313 0-20 5.367188-25.566406 9.671875-4.746094 3.671875-8.167969 6.328125-15.769532 6.328125-7.597656 0-11.023437-2.65625-15.765625-6.328125-5.570312-4.304687-12.488281-9.671875-25.5625-9.671875-13.070312 0-20 5.367188-25.558593 9.679688-4.746094 3.664062-8.167969 6.320312-15.761719 6.320312-7.582031 0-11-2.648438-15.742188-6.320312-5.558593-4.3125-12.480469-9.679688-25.542969-9.679688-13.074218 0-20 5.367188-25.5625 9.679688-4.742187 3.664062-8.167968 6.320312-15.757812 6.320312-7.585938 0-11.007812-2.648438-15.746094-6.320312-5.558594-4.3125-12.480468-9.679688-25.535156-9.679688v16c7.585938 0 11.007812 2.648438 15.742188 6.320312 5.5625 4.3125 12.480468 9.679688 25.539062 9.679688 13.0625 0 19.992188-5.367188 25.550781-9.671875 4.742188-3.671875 8.175781-6.328125 15.769531-6.328125 7.582032 0 11.007813 2.65625 15.75 6.328125 5.558594 4.304687 12.480469 9.671875 25.535157 9.671875 13.066406 0 19.992187-5.367188 25.554687-9.671875 4.742188-3.671875 8.175782-6.328125 15.765625-6.328125 7.59375 0 11.023438 2.65625 15.769531 6.328125 5.566407 4.304687 12.496094 9.671875 25.558594 9.671875 13.066406 0 19.992188-5.367188 25.5625-9.671875 4.742188-3.671875 8.175782-6.328125 15.773438-6.328125 7.59375 0 11.023437 2.65625 15.769531 6.328125 5.566406 4.304687 12.496094 9.671875 25.558594 9.671875 13.066406 0 20-5.367188 25.570312-9.671875 4.742188-3.671875 8.175781-6.328125 15.773438-6.328125 7.59375 0 11.023437 2.65625 15.769531 6.328125 5.566406 4.304687 12.496094 9.671875 25.558594 9.671875 13.066406 0 20-5.359375 25.570312-9.671875 4.742188-3.671875 8.175782-6.328125 15.78125-6.328125 7.617188 0 11.050782 2.65625 15.808594 6.328125 5.570312 4.3125 12.503906 9.671875 25.585938 9.671875 13.078124 0 20.007812-5.359375 25.574218-9.671875 4.761719-3.671875 8.191406-6.328125 15.808594-6.328125v-16c-13.078125 0-20.015625 5.359375-25.585938 9.671875-4.757812 3.671875-8.191406 6.328125-15.796874 6.328125zm0 0"/><path d="m454.617188 368c-7.617188 0-11.050782-2.65625-15.808594-6.328125-5.570313-4.3125-12.503906-9.671875-25.585938-9.671875-13.078125 0-20.007812 5.367188-25.574218 9.671875-4.746094 3.671875-8.167969 6.328125-15.777344 6.328125-7.589844 0-11.023438-2.65625-15.765625-6.328125-5.570313-4.304687-12.488281-9.671875-25.5625-9.671875-13.070313 0-20 5.367188-25.566407 9.671875-4.746093 3.671875-8.167968 6.328125-15.777343 6.328125-7.589844 0-11.023438-2.65625-15.765625-6.328125-5.570313-4.304687-12.488282-9.671875-25.5625-9.671875-13.070313 0-20 5.367188-25.566406 9.671875-4.746094 3.671875-8.167969 6.328125-15.769532 6.328125-7.597656 0-11.023437-2.65625-15.765625-6.328125-5.570312-4.304687-12.488281-9.671875-25.5625-9.671875-13.070312 0-20 5.367188-25.558593 9.679688-4.746094 3.664062-8.167969 6.320312-15.761719 6.320312-7.582031 0-11-2.648438-15.742188-6.320312-5.558593-4.3125-12.480469-9.679688-25.542969-9.679688-13.074218 0-20 5.367188-25.5625 9.679688-4.742187 3.664062-8.167968 6.320312-15.757812 6.320312-7.585938 0-11.007812-2.648438-15.746094-6.320312-5.558594-4.3125-12.480468-9.679688-25.535156-9.679688v16c7.585938 0 11.007812 2.648438 15.742188 6.320312 5.5625 4.3125 12.480468 9.679688 25.539062 9.679688 13.0625 0 19.992188-5.367188 25.550781-9.671875 4.742188-3.671875 8.175781-6.328125 15.769531-6.328125 7.582032 0 11.007813 2.65625 15.75 6.328125 5.558594 4.304687 12.480469 9.671875 25.535157 9.671875 13.066406 0 19.992187-5.367188 25.554687-9.671875 4.742188-3.671875 8.175782-6.328125 15.765625-6.328125 7.59375 0 11.023438 2.65625 15.769531 6.328125 5.566407 4.304687 12.496094 9.671875 25.558594 9.671875 13.066406 0 19.992188-5.367188 25.5625-9.671875 4.742188-3.671875 8.175782-6.328125 15.773438-6.328125 7.59375 0 11.023437 2.65625 15.769531 6.328125 5.566406 4.304687 12.496094 9.671875 25.558594 9.671875 13.066406 0 20-5.367188 25.570312-9.671875 4.742188-3.671875 8.175781-6.328125 15.773438-6.328125 7.59375 0 11.023437 2.65625 15.769531 6.328125 5.566406 4.304687 12.496094 9.671875 25.558594 9.671875 13.066406 0 20-5.359375 25.570312-9.671875 4.742188-3.671875 8.175782-6.328125 15.78125-6.328125 7.617188 0 11.050782 2.65625 15.808594 6.328125 5.570312 4.3125 12.503906 9.671875 25.585938 9.671875 13.078124 0 20.007812-5.359375 25.574218-9.671875 4.761719-3.671875 8.191406-6.328125 15.808594-6.328125v-16c-13.078125 0-20.015625 5.359375-25.585938 9.671875-4.757812 3.671875-8.191406 6.328125-15.796874 6.328125zm0 0"/></svg>