<svg height="496pt" viewBox="0 0 496 496" width="496pt" xmlns="http://www.w3.org/2000/svg"><path d="m472 160h-40v-17.472656c9.289062-3.3125 16-12.113282 16-22.527344v-8h8c13.230469 0 24-10.769531 24-24v-16c0-13.230469-10.769531-24-24-24h-9.472656c-3.3125-9.289062-12.113282-16-22.527344-16h-24.808594c-3.71875-18.230469-19.878906-32-39.191406-32s-35.472656 13.769531-39.191406 32h-24.808594c-10.414062 0-19.214844 6.710938-22.527344 16h-9.472656c-13.230469 0-24 10.769531-24 24v16c0 13.230469 10.769531 24 24 24h8v8c0 10.414062 6.710938 19.214844 16 22.527344v17.472656h-72v-48h-48v48h-16v-48h-48v48h-16v-48h-48v48h-16c-13.230469 0-24 10.769531-24 24v288c0 13.230469 10.769531 24 24 24h448c13.230469 0 24-10.769531 24-24v-288c0-13.230469-10.769531-24-24-24zm-72 0v-16h16v16zm-16-16v16h-48v-16zm40-16h-128c-4.40625 0-8-3.59375-8-8v-40h144v40c0 4.40625-3.59375 8-8 8zm40-56v16c0 4.40625-3.59375 8-8 8h-8v-32h8c4.40625 0 8 3.59375 8 8zm-104-56c10.414062 0 19.214844 6.710938 22.527344 16h-45.046875c3.304687-9.289062 12.105469-16 22.519531-16zm-64 32h128c4.40625 0 8 3.59375 8 8v8h-144v-8c0-4.40625 3.59375-8 8-8zm-32 48c-4.40625 0-8-3.59375-8-8v-16c0-4.40625 3.59375-8 8-8h8v32zm40 48h16v16h-16zm-120-16h16v32h-16zm-64 0h16v32h-16zm-64 0h16v32h-16zm-32 48h448c4.40625 0 8 3.59375 8 8v72h-56.207031c5.078125-6.703125 8.207031-14.960938 8.207031-24 0-22.054688-17.945312-40-40-40s-40 17.945312-40 40c0 9.039062 3.128906 17.296875 8.207031 24h-224.414062c5.078125-6.703125 8.207031-14.960938 8.207031-24 0-22.054688-17.945312-40-40-40s-40 17.945312-40 40c0 9.039062 3.128906 17.296875 8.207031 24h-56.207031v-72c0-4.40625 3.59375-8 8-8zm360 128v32h-32v-32zm-48 32h-176v-32h176zm-192 0h-32v-32h32zm256 16v-48h32v144h-368v-144h32v48zm-352-64v160h-32v-176h464v176h-32v-160zm64-33.472656v-30.527344h-16v30.527344c-9.289062-3.3125-16-12.113282-16-22.527344 0-13.230469 10.769531-24 24-24s24 10.769531 24 24c0 10.414062-6.710938 19.214844-16 22.527344zm288 0v-30.527344h-16v30.527344c-9.289062-3.3125-16-12.113282-16-22.527344 0-13.230469 10.769531-24 24-24s24 10.769531 24 24c0 10.414062-6.710938 19.214844-16 22.527344zm72 225.472656h-448c-4.40625 0-8-3.585938-8-8v-8h464v8c0 4.414062-3.59375 8-8 8zm0 0"/><path d="m352 368h-208v64h208zm-16 48h-176v-32h176zm0 0"/><path d="m320 192h-144v48h144zm-64 16h16v16h-16zm-16 16h-16v-16h16zm-48-16h16v16h-16zm112 16h-16v-16h16zm0 0"/></svg>