<?xml version="1.0"?>
<svg xmlns="http://www.w3.org/2000/svg" height="512px" viewBox="-24 0 496 496" width="512px"><path d="m408 232h-78.257812c14.027343-20.527344 22.257812-45.320312 22.257812-72 0-18.527344-4.039062-36.105469-11.160156-52.015625 20.839844-8.390625 35.160156-28.929687 35.160156-51.984375 0-30.878906-25.128906-56-56-56-24.886719 0-46.367188 16.375-53.488281 39.40625-13.328125-4.710938-27.589844-7.40625-42.511719-7.40625s-29.183594 2.695312-42.511719 7.40625c-7.121093-23.03125-28.601562-39.40625-53.488281-39.40625-30.871094 0-56 25.121094-56 56 0 23.105469 14.3125 43.585938 35.167969 51.96875-7.121094 15.917969-11.167969 33.496094-11.167969 52.03125 0 26.679688 8.230469 51.472656 22.257812 72h-78.257812c-22.054688 0-40 17.945312-40 40s17.945312 40 40 40h35.375c-2.238281 10.472656-3.375 21.191406-3.375 32 0 26.167969 6.664062 51.527344 19.304688 74.097656-25.417969 5.269532-43.304688 20.023438-43.304688 37.902344 0 22.433594 28.113281 40 64 40 19.71875 0 37.0625-5.328125 48.710938-13.832031 19.890624 9.144531 41.144531 13.832031 63.289062 13.832031s43.390625-4.6875 63.289062-13.832031c11.648438 8.503906 28.992188 13.832031 48.710938 13.832031 35.886719 0 64-17.566406 64-40 0-17.878906-17.878906-32.632812-43.304688-37.902344 12.640626-22.570312 19.304688-47.929687 19.304688-74.097656 0-10.816406-1.136719-21.535156-3.375-32h35.375c22.054688 0 40-17.945312 40-40s-17.945312-40-40-40zm-86.71875-154.96875c-6.792969-7.953125-14.546875-15.023438-23.066406-21.121094 2.816406-4.765625 8.007812-7.910156 13.785156-7.910156 8.824219 0 16 7.175781 16 16 0 5.3125-2.574219 10.097656-6.71875 13.03125zm-1.28125-61.03125c22.054688 0 40 17.945312 40 40 0 17.054688-11.015625 32.078125-26.761719 37.632812-.773437-1.273437-1.503906-2.578124-2.316406-3.816406 8.078125-5.894531 13.078125-15.351562 13.078125-25.816406 0-17.648438-14.351562-32-32-32-11.359375 0-21.617188 6.054688-27.3125 15.335938-1.046875-.566407-2.167969-1.023438-3.230469-1.558594 4.558594-17.273438 20.199219-29.777344 38.542969-29.777344zm-193.289062 61.03125c-4.144532-2.933594-6.710938-7.71875-6.710938-13.03125 0-8.824219 7.175781-16 16-16 5.753906 0 10.945312 3.152344 13.769531 7.921875-8.511719 6.09375-16.265625 13.167969-23.058593 21.109375zm-38.710938-21.03125c0-22.054688 17.945312-40 40-40 18.34375 0 33.984375 12.503906 38.542969 29.785156-1.078125.542969-2.207031 1-3.261719 1.574219-5.714844-9.28125-15.976562-15.359375-27.28125-15.359375-17.648438 0-32 14.351562-32 32 0 10.464844 5 19.929688 13.078125 25.816406-.8125 1.246094-1.550781 2.550782-2.324219 3.824219-15.753906-5.542969-26.753906-20.542969-26.753906-37.640625zm136-8c61.761719 0 112 50.238281 112 112s-50.238281 112-112 112-112-50.238281-112-112 50.238281-112 112-112zm-208 224c0-13.230469 10.769531-24 24-24h8v48h-8c-13.230469 0-24-10.769531-24-24zm96 160c21.671875 0 38.265625 7.425781 44.863281 16h-89.726562c6.597656-8.574219 23.191406-16 44.863281-16zm0 48c-21.671875 0-38.265625-7.425781-44.863281-16h89.726562c-6.597656 8.574219-23.191406 16-44.863281 16zm224 0c-21.671875 0-38.265625-7.425781-44.863281-16h89.726562c-6.597656 8.574219-23.191406 16-44.863281 16zm44.863281-32h-89.726562c6.597656-8.574219 23.199219-16 44.863281-16s38.265625 7.425781 44.863281 16zm-18.488281-152c-2.511719 0-4.878906 1.183594-6.390625 3.191406-1.511719 2.007813-1.992187 4.609375-1.296875 7.023438 3.519531 12.21875 5.3125 24.929687 5.3125 37.785156 0 25.695312-7.222656 50.503906-20.769531 72.097656-1.078125-.035156-2.132813-.097656-3.230469-.097656-35.886719 0-64 17.566406-64 40 0 4.800781 1.359375 9.359375 3.734375 13.59375-16.382813 6.773438-33.703125 10.40625-51.734375 10.40625-18.039062 0-35.351562-3.632812-51.734375-10.40625 2.382813-4.234375 3.734375-8.792969 3.734375-13.59375 0-22.433594-28.113281-40-64-40-1.097656 0-2.152344.0625-3.230469.097656-13.546875-21.59375-20.769531-46.394531-20.769531-72.097656 0-12.863281 1.792969-25.574219 5.320312-37.777344.695313-2.414062.214844-5.015625-1.296874-7.03125-1.511719-2.007812-3.871094-3.191406-6.390626-3.191406h-21.632812v-48h67.289062c23.335938 24.574219 56.222657 40 92.710938 40s69.367188-15.425781 92.710938-40h67.289062v48zm45.625 0h-8v-48h8c13.230469 0 24 10.769531 24 24s-10.769531 24-24 24zm0 0" fill="#2c237d"/><path d="m272 328h-96c-4.425781 0-8 3.585938-8 8 0 39.695312 25.128906 72 56 72s56-32.304688 56-72c0-4.414062-3.574219-8-8-8zm-48 64c-20.121094 0-36.816406-20.894531-39.59375-48h79.1875c-2.777344 27.105469-19.472656 48-39.59375 48zm0 0" fill="#2c237d"/><path d="m194.097656 167.519531c-16.128906 8.753907-26.097656 23.953125-26.097656 40.480469 0 26.472656 25.128906 48 56 48s56-21.527344 56-48c0-16.535156-9.96875-31.734375-26.097656-40.488281-4.488282-9.128907-15.972656-15.511719-29.902344-15.511719s-25.414062 6.382812-29.902344 15.519531zm37.902344 71.832031v-15.351562h-16v15.351562c-18.230469-2.976562-32-15.894531-32-31.351562 0-8.199219 4.0625-16.007812 10.960938-21.886719 5.007812 8.246094 15.949218 13.886719 29.039062 13.886719s24.03125-5.640625 29.039062-13.894531c6.90625 5.878906 10.960938 13.695312 10.960938 21.894531 0 15.457031-13.769531 28.375-32 31.351562zm-8-71.351562c9.769531 0 16 4.734375 16 8s-6.230469 8-16 8-16-4.734375-16-8 6.230469-8 16-8zm0 0" fill="#2c237d"/><path d="m184 128c13.230469 0 24-10.769531 24-24s-10.769531-24-24-24-24 10.769531-24 24 10.769531 24 24 24zm0-32c4.414062 0 8 3.59375 8 8s-3.585938 8-8 8-8-3.59375-8-8 3.585938-8 8-8zm0 0" fill="#2c237d"/><path d="m264 128c13.230469 0 24-10.769531 24-24s-10.769531-24-24-24-24 10.769531-24 24 10.769531 24 24 24zm0-32c4.414062 0 8 3.59375 8 8s-3.585938 8-8 8-8-3.59375-8-8 3.585938-8 8-8zm0 0" fill="#2c237d"/></svg>
