<svg height="496pt" viewBox="0 0 496 496" width="496pt" xmlns="http://www.w3.org/2000/svg"><path d="m112 456c0 4.417969-3.582031 8-8 8s-8-3.582031-8-8 3.582031-8 8-8 8 3.582031 8 8zm0 0"/><path d="m496 0h-496v336h64v120c0 22.054688 17.945312 40 40 40s40-17.945312 40-40v-120h352zm-16 64h-32v-48h32zm-384 240v-79.191406c2.585938-.527344 5.265625-.808594 8-.808594s5.414062.28125 8 .808594v79.191406zm-16-48h-15.191406c1.976562-9.703125 7.566406-18.023438 15.191406-23.792969zm48-23.792969c7.625 5.769531 13.214844 14.097657 15.191406 23.792969h-15.191406zm31.359375 23.792969c-3.902344-27.089844-27.207031-48-55.359375-48s-51.457031 20.910156-55.359375 48h-6.992187c-14.144532 0-25.648438-11.503906-25.648438-25.648438 0-3.214843.59375-6.367187 1.769531-9.351562l61.320313-156.695312c3.871094-9.90625 13.246094-16.304688 23.878906-16.304688h2.0625c10.632812 0 20.007812 6.398438 23.878906 16.304688l61.328125 156.703124c1.167969 2.976563 1.761719 6.128907 1.761719 9.34375 0 14.144532-11.503906 25.648438-25.648438 25.648438zm240.640625 0v-48h16v48zm0-64v-48h32v48zm0-64c0-17.648438-14.351562-32-32-32s-32 14.351562-32 32v128c0 8.824219-7.175781 16-16 16s-16-7.175781-16-16v-112c0-17.648438-14.351562-32-32-32s-32 14.351562-32 32v64c0 8.824219-7.175781 16-16 16s-16-7.175781-16-16v-128h208v48zm-201.078125 128c4.621094-5.863281 7.652344-12.9375 8.582031-20.71875 4.832032 2.933594 10.441406 4.71875 16.496094 4.71875 17.648438 0 32-14.351562 32-32v-64c0-8.824219 7.175781-16 16-16s16 7.175781 16 16v112zm-6.921875-184v109.59375l-32-81.769531v-35.824219c0-8.824219 7.175781-16 16-16s16 7.175781 16 16zm176-8v-48h64v48zm-16 0h-64v-48h64zm-80 0h-64v-48h64zm-80-27.550781c-4.726562-2.753907-10.144531-4.449219-16-4.449219-16.273438 0-29.59375 12.238281-31.59375 27.976562l-.582031-1.496093c-3.230469-8.25-8.832031-14.96875-15.824219-19.585938v-22.894531h64zm-80-3.832031c-2.28125-.378907-4.601562-.617188-6.96875-.617188h-2.0625c-17.265625 0-32.488281 10.390625-38.792969 26.480469l-2.160156 5.519531h-14.015625v-48h64zm-56.238281 47.382812-39.761719 101.601562v-101.601562zm216.238281 192v48h-64v-48zm16 0h4.449219c5.550781 9.519531 15.757812 16 27.550781 16 17.648438 0 32-14.351562 32-32v-128c0-8.824219 7.175781-16 16-16s16 7.175781 16 16v192h-96zm112 0h32v48h-32zm32-16v-48h48v48zm16-64v-48h32v48zm-16-64v-48h48v48zm-400-112v48h-16v-48zm-16 304v-57.078125c7.097656 5.597656 15.929688 9.078125 25.648438 9.078125h38.351562v32h-16v16zm88 160c-13.230469 0-24-10.769531-24-24v-104h32v-16h-32v-16h48v48h-32v16h32v72c0 13.230469-10.769531 24-24 24zm24-176v-32h64v48h-48v-16zm320 16v-48h32v48zm0 0"/></svg>