<?xml version="1.0" encoding="iso-8859-1"?>
<!-- Generator: Adobe Illustrator 19.0.0, SVG Export Plug-In . SVG Version: 6.00 Build 0)  -->
<svg version="1.1" id="Capa_1" xmlns="http://www.w3.org/2000/svg" xmlns:xlink="http://www.w3.org/1999/xlink" x="0px" y="0px"
	 viewBox="0 0 512 512" style="enable-background:new 0 0 512 512;" xml:space="preserve">
<g>
	<g>
		<circle cx="142.89" cy="363.82" r="7.528"/>
	</g>
</g>
<g>
	<g>
		<circle cx="216.08" cy="363.82" r="7.526"/>
	</g>
</g>
<g>
	<g>
		<path d="M134.474,176.123c-4.142,0-7.5,3.357-7.5,7.5v18.309c0,4.143,3.358,7.5,7.5,7.5c4.142,0,7.5-3.358,7.5-7.5v-18.309
			C141.974,179.48,138.616,176.123,134.474,176.123z"/>
	</g>
</g>
<g>
	<g>
		<path d="M224.498,176.123c-4.142,0-7.5,3.357-7.5,7.5v18.309c0,4.142,3.358,7.5,7.5,7.5c4.142,0,7.5-3.357,7.5-7.5v-18.309
			C231.998,179.48,228.64,176.123,224.498,176.123z"/>
	</g>
</g>
<g>
	<g>
		<path d="M187.878,221.107h-9.285v-35.215c0-4.143-3.358-7.5-7.5-7.5c-4.142,0-7.5,3.357-7.5,7.5v37.715
			c0,6.893,5.608,12.5,12.5,12.5h11.785c4.142,0,7.5-3.357,7.5-7.5S192.02,221.107,187.878,221.107z"/>
	</g>
</g>
<g>
	<g>
		<path d="M212.292,246.538c-4.142,0-7.5,3.357-7.5,7.5c0,4.277-3.481,7.757-7.759,7.757H161.94c-4.279,0-7.76-3.479-7.76-7.757
			c0-4.143-3.358-7.5-7.5-7.5c-4.142,0-7.5,3.357-7.5,7.5c0,12.548,10.21,22.757,22.76,22.757h35.093
			c12.549,0,22.759-10.209,22.759-22.757C219.792,249.895,216.434,246.538,212.292,246.538z"/>
	</g>
</g>
<g>
	<g>
		<path d="M504.068,381.932c-10.811-4.746-17.265-12.621-17.265-21.065c0-8.445,6.454-16.321,17.264-21.067
			c4.819-2.115,7.933-6.883,7.933-12.146c0-1.343-0.204-2.674-0.605-3.959c-2.191-7.006-5.034-13.861-8.449-20.378
			c-2.299-4.383-6.801-7.106-11.751-7.106c-1.651,0-3.272,0.305-4.814,0.906c-4.472,1.742-8.808,2.626-12.885,2.626
			c-5.824,0-10.741-1.839-14.219-5.313c-3.477-3.479-5.315-8.399-5.316-14.229c0-4.12,0.876-8.448,2.603-12.859
			c0.607-1.549,0.916-3.176,0.916-4.836c0-4.951-2.725-9.455-7.11-11.752c-6.509-3.41-13.363-6.25-20.364-8.438
			c-1.287-0.403-2.622-0.608-3.966-0.608c-5.259,0-10.026,3.113-12.145,7.933c-4.747,10.81-12.624,17.263-21.071,17.263
			c-8.447,0-16.326-6.454-21.075-17.265c-2.117-4.818-6.884-7.932-12.144-7.932c-1.343,0-2.677,0.205-3.96,0.606
			c-7.016,2.193-13.869,5.033-20.367,8.439c-4.387,2.298-7.112,6.801-7.112,11.753c0,1.656,0.307,3.281,0.913,4.833
			c1.728,4.414,2.604,8.741,2.604,12.862c0,5.828-1.837,10.747-5.311,14.223c-3.48,3.479-8.398,5.318-14.221,5.318
			c-4.078,0-8.414-0.884-12.892-2.628c-1.542-0.601-3.16-0.904-4.81-0.904c-4.95,0-9.453,2.723-11.752,7.106
			c-2.646,5.05-4.945,10.304-6.868,15.677H251.33v-3.176c0-4.022-1.917-7.597-4.877-9.885c19.971-14.035,34.14-35.788,38.135-60.888
			c1.851,0.306,3.748,0.475,5.685,0.475c19.28,0,34.965-15.683,34.965-34.959v-25.934c0-5.574-1.32-10.842-3.652-15.521
			c2.388-0.641,4.536-2.007,6.13-3.987c2.252-2.801,3.102-6.419,2.331-9.926c-2.45-11.167-8.997-20.688-17.829-27.121
			c-2.343-31.44-15.912-60.08-38.801-81.477c-10.284-9.613-22.061-17.428-34.889-23.278V20.49c0-4.142-3.358-7.5-7.5-7.5
			c-3.158,0-5.854,1.954-6.96,4.717c-6.179-2.005-12.547-3.571-19.054-4.716c-0.185-6.732-5.707-12.155-12.482-12.155h-26.095
			c-6.776,0-12.297,5.423-12.482,12.155c-6.507,1.144-12.875,2.711-19.054,4.716c-1.106-2.763-3.803-4.717-6.96-4.717
			c-4.142,0-7.5,3.358-7.5,7.5v2.826c-12.828,5.851-24.606,13.665-34.89,23.278C62.662,67.991,49.093,96.632,46.75,128.072
			c-8.832,6.434-15.378,15.954-17.83,27.121c-0.769,3.507,0.08,7.124,2.335,9.93c1.592,1.978,3.739,3.343,6.126,3.982
			c-2.332,4.679-3.652,9.946-3.652,15.521v25.934c0,19.276,15.685,34.959,34.964,34.959c1.938,0,3.835-0.169,5.687-0.476
			c3.995,25.101,18.165,46.854,38.136,60.89c-2.96,2.287-4.877,5.862-4.877,9.884v3.176H37.673C16.9,318.992,0,335.889,0,356.658
			v147.006c0,4.143,3.358,7.5,7.5,7.5h343.972c4.142,0,7.5-3.357,7.5-7.5V480c0.211,0.011,0.422,0.024,0.633,0.024
			c5.261-0.001,10.028-3.113,12.146-7.933c4.746-10.809,12.623-17.262,21.069-17.262c8.449,0,16.327,6.452,21.074,17.26
			c2.116,4.819,6.884,7.933,12.146,7.933c1.342,0,2.673-0.204,3.958-0.605c7.002-2.189,13.855-5.028,20.376-8.442
			c4.382-2.301,7.105-6.803,7.105-11.749c0-1.659-0.307-3.285-0.914-4.835c-1.728-4.412-2.604-8.738-2.604-12.859
			c0-5.83,1.837-10.748,5.312-14.223c3.48-3.48,8.398-5.319,14.221-5.319c4.077,0,8.412,0.884,12.884,2.626
			c1.543,0.602,3.163,0.906,4.815,0.906c4.951,0,9.454-2.724,11.751-7.107c3.414-6.512,6.257-13.368,8.449-20.378
			c0.402-1.283,0.606-2.615,0.606-3.959C512,388.818,508.888,384.052,504.068,381.932z M251.332,333.992h23.929
			c1.378,2.53,3.568,4.6,6.315,5.806c4.042,1.774,7.473,3.986,10.187,6.501h-40.431V333.992z M310.24,210.56
			c0,11.006-8.956,19.959-19.965,19.959c-1.563,0-3.079-0.194-4.537-0.538v-25.238h5.978c4.142,0,7.5-3.357,7.5-7.5
			s-3.358-7.5-7.5-7.5h-5.978v-20.219h17.554c4.246,3.663,6.948,9.068,6.948,15.103V210.56z M168.939,15.836h21.095v81.36h-21.095
			V15.836z M73.234,189.742h-6.236c-4.142,0-7.5,3.357-7.5,7.5s3.358,7.5,7.5,7.5h6.236v25.238
			c-1.459,0.344-2.975,0.538-4.539,0.538c-11.008,0.001-19.964-8.953-19.964-19.958v-25.934c0-6.034,2.702-11.44,6.948-15.103
			h17.555V189.742z M44.704,154.524c4.364-11.956,15.954-20.275,28.94-20.275H115c4.142,0,7.5-3.357,7.5-7.5s-3.358-7.5-7.5-7.5
			H73.644c-3.752,0-7.422,0.477-10.954,1.359c3.679-24.276,15.109-46.232,33.106-63.056c7.397-6.915,15.689-12.766,24.646-17.505
			v31.567c0,4.143,3.358,7.5,7.5,7.5c4.142,0,7.5-3.357,7.5-7.5V33.39c5.966-2.173,12.148-3.892,18.497-5.145v71.452
			c0,6.893,5.607,12.5,12.5,12.5h26.095c6.893,0,12.5-5.607,12.5-12.5V28.244c6.348,1.254,12.53,2.973,18.497,5.145v38.226
			c0,4.143,3.358,7.5,7.5,7.5c4.142,0,7.5-3.357,7.5-7.5V40.049c8.956,4.739,17.248,10.59,24.645,17.504
			c17.997,16.823,29.428,38.779,33.106,63.056c-3.531-0.883-7.202-1.359-10.953-1.359H154c-4.142,0-7.5,3.357-7.5,7.5
			s3.358,7.5,7.5,7.5h131.329c12.986,0,24.576,8.318,28.94,20.274H44.704z M88.234,230.514v-60.99h182.503v60.99
			c0,42.529-34.607,77.13-77.144,77.13h-28.215C122.841,307.644,88.234,273.043,88.234,230.514z M171.033,344.899
			c2.347,1.706,5.349,2.645,8.453,2.645s6.105-0.938,8.454-2.646l30.138-21.909c1.629-1.184,3.077-2.817,4.239-4.673h14.015v42.204
			c-0.028,0.712-0.741,2.317-1.239,2.806l-20.95,18.944l-25.733-28.817c-2.295-2.568-5.547-4.041-8.924-4.041
			s-6.629,1.473-8.925,4.043L144.83,382.27l-20.939-18.935c-0.509-0.498-1.222-2.104-1.25-2.801v-42.219h14.012
			c1.162,1.854,2.61,3.489,4.238,4.672L171.033,344.899z M165.926,322.644h27.118l-13.558,9.856L165.926,322.644z M37.673,333.992
			h69.968v12.307H17.517C21.287,338.998,28.903,333.992,37.673,333.992z M133.852,496.164H54.51V464.86h79.342V496.164z
			 M304.614,496.164h-79.343V464.86h79.343V496.164z M343.971,496.165h-24.357v-0.001V460.36c0-5.79-4.711-10.5-10.5-10.5h-88.343
			c-5.79,0-10.5,4.71-10.5,10.5v35.804h-23.286V457c0-4.143-3.358-7.5-7.5-7.5c-4.142,0-7.5,3.357-7.5,7.5v39.164h-23.134V460.36
			c0-5.79-4.711-10.5-10.5-10.5H50.01c-5.79,0-10.5,4.71-10.5,10.5v35.804H15V361.299h92.665c0.244,4.723,2.703,10.031,6.154,13.152
			l22.838,20.653c2.294,2.075,5.263,3.218,8.36,3.218c3.551,0,6.942-1.517,9.304-4.161l17.664-19.781V423c0,4.143,3.358,7.5,7.5,7.5
			c4.142,0,7.5-3.357,7.5-7.5v-48.621l17.666,19.783c2.361,2.644,5.752,4.16,9.303,4.16c0.001,0,0.001,0,0.001,0
			c3.097,0,6.066-1.143,8.359-3.218l22.84-20.653c3.45-3.121,5.909-8.43,6.153-13.152h47.516
			c-0.218,8.279-6.621,15.969-17.247,20.635c-4.819,2.115-7.933,6.883-7.933,12.146c0,1.338,0.203,2.668,0.605,3.958
			c2.192,7.01,5.035,13.866,8.45,20.379c2.299,4.383,6.801,7.107,11.751,7.107c1.652,0,3.272-0.305,4.814-0.906
			c4.474-1.743,8.81-2.627,12.887-2.627c5.822,0,10.739,1.84,14.22,5.319c3.476,3.475,5.313,8.393,5.313,14.223
			c0,4.121-0.876,8.448-2.604,12.863c-0.605,1.548-0.913,3.174-0.913,4.833c0,4.949,2.724,9.451,7.111,11.751
			c2.837,1.486,5.743,2.857,8.694,4.119V496.165z M490.361,410.09c-5.719-2.059-11.386-3.101-16.866-3.101
			c-9.887,0-18.472,3.358-24.827,9.712c-6.35,6.348-9.707,14.935-9.707,24.83c0,5.524,1.037,11.189,3.085,16.86
			c-4.854,2.454-9.91,4.549-15.066,6.242c-7.329-15.565-20.004-24.804-34.16-24.804c-14.154,0-26.829,9.241-34.155,24.806
			c-5.158-1.694-10.213-3.789-15.065-6.243c2.046-5.674,3.083-11.339,3.083-16.861c0-9.896-3.357-18.483-9.709-24.832
			c-6.354-6.352-14.939-9.71-24.825-9.71c-5.48,0-11.147,1.043-16.867,3.102c-2.458-4.854-4.555-9.913-6.25-15.071
			c15.568-7.33,24.812-20.004,24.812-34.156c-0.003-14.151-9.245-26.824-24.812-34.151c1.695-5.16,3.793-10.217,6.25-15.072
			c5.721,2.059,11.388,3.102,16.869,3.102c9.887,0,18.472-3.357,24.829-9.713c6.348-6.352,9.704-14.938,9.704-24.828
			c0-5.524-1.038-11.191-3.084-16.862c4.844-2.451,9.898-4.545,15.064-6.242c7.331,15.565,20.007,24.807,34.16,24.807
			c14.154,0,26.83-9.241,34.157-24.806c5.159,1.693,10.214,3.788,15.064,6.241c-2.047,5.675-3.085,11.34-3.085,16.863
			c0.002,9.893,3.359,18.479,9.711,24.835c6.354,6.35,14.939,9.706,24.825,9.706c5.48,0,11.146-1.042,16.865-3.101
			c2.457,4.855,4.555,9.912,6.249,15.07c-15.567,7.328-24.808,20.002-24.808,34.154c0,14.152,9.243,26.826,24.807,34.151
			C494.914,400.18,492.817,405.236,490.361,410.09z"/>
	</g>
</g>
<g>
	<g>
		<path d="M454.581,344.03c-1.086-3.997-5.21-6.352-9.205-5.268c-3.997,1.088-6.355,5.21-5.268,9.206
			c1.137,4.179,1.713,8.518,1.713,12.898c0,27.014-21.982,48.99-49.001,48.99c-27.02,0-49.002-21.977-49.002-48.99
			c0-27.015,21.982-48.992,49.002-48.992c11.21,0,21.76,3.683,30.507,10.648c3.24,2.582,7.959,2.047,10.539-1.193
			c2.581-3.24,2.046-7.959-1.194-10.539c-11.267-8.974-25.42-13.916-39.852-13.916c-35.291,0-64.002,28.707-64.002,63.992
			c0,35.284,28.711,63.99,64.002,63.99s64.001-28.706,64.001-63.99C456.821,355.156,456.067,349.491,454.581,344.03z"/>
	</g>
</g>
<g>
	<g>
		<path d="M392.821,324.871c-19.851,0-36.001,16.147-36.001,35.995c0,19.848,16.15,35.995,36.001,35.995s36-16.147,36-35.995
			C428.821,341.019,412.671,324.871,392.821,324.871z M392.821,381.861c-11.58,0-21.001-9.418-21.001-20.995
			c0-11.577,9.421-20.995,21.001-20.995c11.58,0,21,9.418,21,20.995C413.821,372.443,404.4,381.861,392.821,381.861z"/>
	</g>
</g>
<g>
	<g>
		<path d="M419.446,173.106l-18.63-10.725c-2.913-1.677-5.999-2.029-8.075-2.029c-2.076,0-5.162,0.353-8.076,2.03l-18.626,10.725
			c-4.688,2.699-8.091,8.585-8.091,13.995v21.428c0.002,5.409,3.404,11.295,8.092,13.993l18.627,10.727
			c2.914,1.677,5.999,2.029,8.075,2.029c2.076,0,5.162-0.352,8.075-2.029l18.629-10.726c4.688-2.699,8.091-8.585,8.091-13.995
			v-21.428C427.537,181.691,424.134,175.805,419.446,173.106z M412.539,208.427c-0.074,0.33-0.415,0.92-0.664,1.149l-18.451,10.622
			c-0.1,0.029-0.345,0.081-0.681,0.081s-0.581-0.052-0.681-0.081l-18.448-10.622c-0.249-0.229-0.59-0.819-0.664-1.149v-21.223
			c0.074-0.33,0.415-0.921,0.664-1.149l18.448-10.622c0.1-0.029,0.345-0.081,0.681-0.081c0.335,0,0.581,0.052,0.681,0.081
			l18.451,10.622c0.249,0.229,0.59,0.819,0.664,1.149V208.427z"/>
	</g>
</g>
<g>
	<g>
		<path d="M471.87,111.535l-13.577-7.816c-2.914-1.677-6-2.029-8.075-2.029c-2.076,0-5.162,0.353-8.076,2.03l-13.574,7.815
			c-4.688,2.699-8.091,8.585-8.091,13.995v15.611c0,5.411,3.403,11.297,8.09,13.995l13.576,7.818
			c2.913,1.677,5.999,2.029,8.075,2.029c2.076,0,5.162-0.352,8.075-2.029l13.577-7.817c4.688-2.699,8.091-8.585,8.091-13.995V125.53
			C479.961,120.12,476.558,114.234,471.87,111.535z M464.961,141.039c-0.074,0.33-0.415,0.921-0.664,1.149l-13.398,7.714
			c-0.1,0.029-0.345,0.081-0.681,0.081c-0.335,0-0.581-0.052-0.681-0.081l-13.396-7.714c-0.249-0.229-0.59-0.819-0.664-1.149
			v-15.406c0.074-0.33,0.415-0.921,0.664-1.149l13.396-7.713c0.1-0.029,0.345-0.081,0.681-0.081c0.335,0,0.581,0.052,0.681,0.081
			l13.398,7.713c0.249,0.229,0.59,0.819,0.664,1.149V141.039z"/>
	</g>
</g>
<g>
</g>
<g>
</g>
<g>
</g>
<g>
</g>
<g>
</g>
<g>
</g>
<g>
</g>
<g>
</g>
<g>
</g>
<g>
</g>
<g>
</g>
<g>
</g>
<g>
</g>
<g>
</g>
<g>
</g>
</svg>
